<svg width="30" height="23" viewBox="0 0 30 23" fill="none" xmlns="http://www.w3.org/2000/svg">
<path fill-rule="evenodd" clip-rule="evenodd" d="M0 2C0 0.89543 0.895431 0 2 0H28C29.1046 0 30 0.89543 30 2V2.05882C30 3.16339 29.1046 4.05882 28 4.05882H2C0.89543 4.05882 0 3.16339 0 2.05882V2ZM0 20.9412C0 19.8366 0.895431 18.9412 2 18.9412H28C29.1046 18.9412 30 19.8366 30 20.9412V21C30 22.1045 29.1046 23 28 23H2C0.89543 23 0 22.1045 0 21V20.9412ZM2 9.47059C0.895431 9.47059 0 10.366 0 11.4706V11.5294C0 12.634 0.89543 13.5294 2 13.5294H28C29.1046 13.5294 30 12.634 30 11.5294V11.4706C30 10.366 29.1046 9.47059 28 9.47059H2Z" fill="white"/>
</svg>